<svg width="48" height="48" viewBox="0 0 48 48" fill="none" xmlns="http://www.w3.org/2000/svg">
<rect width="48" height="48" rx="8" fill="#121212"/>
<path d="M30.7412 13.8047V26.8564C30.7324 28.667 30.1611 30.1479 29.0273 31.2993C27.9023 32.4507 26.373 33.0967 24.4395 33.2373L23.7671 33.2637C21.6665 33.2637 19.9922 32.6968 18.7441 31.563C17.4961 30.4292 16.8633 28.8691 16.8457 26.8828V13.8047H19.3506V26.8037C19.3506 28.1924 19.7329 29.2734 20.4976 30.0469C21.2622 30.8115 22.3521 31.1938 23.7671 31.1938C25.1997 31.1938 26.2939 30.8115 27.0498 30.0469C27.8145 29.2822 28.1968 28.2056 28.1968 26.8169V13.8047H30.7412Z" fill="white"/>
</svg>
